<?xml version="1.0" encoding="UTF-8"?>
<!DOCTYPE svg PUBLIC "-//W3C//DTD SVG 1.1//EN" "http://www.w3.org/Graphics/SVG/1.1/DTD/svg11.dtd">
<svg xmlns="http://www.w3.org/2000/svg" version="1.1" width="351px" height="597px" style="shape-rendering:geometricPrecision; text-rendering:geometricPrecision; image-rendering:optimizeQuality; fill-rule:evenodd; clip-rule:evenodd" xmlns:xlink="http://www.w3.org/1999/xlink">
<g><path style="opacity:1" fill="#0c110e" d="M 177.5,2.5 C 178.922,2.70858 180.255,3.20858 181.5,4C 184.464,7.96584 187.797,11.6325 191.5,15C 205.901,24.7323 219.735,35.2323 233,46.5C 244.053,59.1051 251.219,73.6051 254.5,90C 268.242,92.2818 281.909,94.9484 295.5,98C 303.208,99.9316 309.708,103.765 315,109.5C 315.511,116.643 312.678,122.143 306.5,126C 296.567,132.09 285.9,136.423 274.5,139C 273.484,139.519 272.818,140.353 272.5,141.5C 274.53,146.738 278.197,149.238 283.5,149C 295.013,136.715 307.679,135.382 321.5,145C 335.235,156.437 339.068,170.604 333,187.5C 328.126,194.88 321.626,200.213 313.5,203.5C 313.167,205 312.833,206.5 312.5,208C 314.041,219.165 315.541,230.332 317,241.5C 318.172,271.822 318.672,302.156 318.5,332.5C 317.697,326.804 316.697,321.137 315.5,315.5C 312.185,317.808 308.851,320.141 305.5,322.5C 305.167,322.5 304.833,322.5 304.5,322.5C 308.104,319.398 311.604,316.065 315,312.5C 315.582,285.136 314.916,257.803 313,230.5C 307.239,179.079 280.739,143.246 233.5,123C 231.333,122.833 229.167,122.667 227,122.5C 190.591,126.485 154.091,127.652 117.5,126C 84.5208,136.078 60.3541,156.578 45,187.5C 35.0541,210.432 29.7208,234.432 29,259.5C 29.3087,275.828 29.8087,292.161 30.5,308.5C 30.6633,310.857 30.4966,313.19 30,315.5C 29.7216,314.584 29.2216,313.918 28.5,313.5C 27.0136,295.334 26.3469,277.167 26.5,259C 26.4357,245.594 28.1024,232.428 31.5,219.5C 29.8103,217.481 28.1436,215.481 26.5,213.5C 16.9776,208.471 10.4776,200.805 7,190.5C 3.4062,168.731 12.2395,154.565 33.5,148C 38.5715,147.249 43.5715,147.582 48.5,149C 52.6257,151.462 56.459,154.295 60,157.5C 64.6111,155.073 67.4444,151.406 68.5,146.5C 54.4878,142.916 43.3211,135.249 35,123.5C 34.2937,121.029 34.627,118.695 36,116.5C 38.9889,112.509 42.8222,109.676 47.5,108C 60.0128,102.94 72.6794,98.2732 85.5,94C 87.9335,83.0367 91.7669,72.5367 97,62.5C 100.217,56.5634 104.051,51.0634 108.5,46C 119.712,35.4536 132.045,26.4536 145.5,19C 151.873,12.9583 158.54,7.29159 165.5,2C 169.721,-0.116779 173.721,0.0498878 177.5,2.5 Z"/></g>
<g><path style="opacity:1" fill="#d1d6d7" d="M 90.5,117.5 C 84.8236,117.334 79.1569,117.501 73.5,118C 77.5483,118.304 81.5483,118.804 85.5,119.5C 87.924,119.192 90.2573,119.526 92.5,120.5C 87.4056,123.463 82.5723,126.796 78,130.5C 75.5748,135.687 72.9082,140.687 70,145.5C 57.2885,141.98 46.9552,134.98 39,124.5C 37.5783,121.97 37.245,119.303 38,116.5C 41.7522,113.371 45.9188,110.871 50.5,109C 60.1261,106.458 69.4594,103.125 78.5,99C 94.5032,94.3695 110.837,91.7029 127.5,91C 168.757,89.4088 210.09,90.4088 251.5,94C 269.804,96.727 287.804,100.727 305.5,106C 313.061,110.825 313.394,116.159 306.5,122C 301.167,125.333 295.833,128.667 290.5,132C 284.364,134.491 278.03,136.158 271.5,137C 266.126,129.959 259.793,123.959 252.5,119C 258.561,116.709 264.894,115.376 271.5,115C 246.779,115.337 222.112,117.003 197.5,120C 186.507,120.658 175.507,121.158 164.5,121.5C 139.832,120.115 115.165,118.782 90.5,117.5 Z"/></g>
<g><path style="opacity:1" fill="#bebaa3" d="M 177.5,2.5 C 189.158,18.3088 203.824,30.8088 221.5,40C 233.57,48.7409 242.737,59.9076 249,73.5C 250.89,79.0095 251.723,84.6762 251.5,90.5C 234.814,89.665 218.148,88.4983 201.5,87C 178.833,86.3333 156.167,86.3333 133.5,87C 118.157,87.4609 103.157,89.6276 88.5,93.5C 88.8073,90.1011 89.8073,86.9345 91.5,84C 129.301,73.1135 167.967,69.4469 207.5,73C 218.175,74.2887 228.842,75.2887 239.5,76C 231.108,73.0698 222.441,71.0698 213.5,70C 173.279,65.7502 133.612,68.5836 94.5,78.5C 93.8333,78.1667 93.1667,77.8333 92.5,77.5C 95.9916,66.3421 101.658,56.5087 109.5,48C 121.5,39.6667 133.5,31.3333 145.5,23C 150.988,17.6787 156.321,12.1787 161.5,6.5C 166.266,3.0761 171.599,1.74277 177.5,2.5 Z"/></g>
<g><path style="opacity:1" fill="#3c3c36" d="M 181.5,30.5 C 173.753,24.8206 166.586,25.4873 160,32.5C 159.333,36.5 159.333,40.5 160,44.5C 164.821,54.749 171.487,56.0823 180,48.5C 181.411,46.3496 182.245,44.0163 182.5,41.5C 183.314,39.369 183.814,37.0356 184,34.5C 185.992,45.8801 181.492,52.8801 170.5,55.5C 163.586,54.4204 159.419,50.4204 158,43.5C 155.964,31.2079 161.13,25.0412 173.5,25C 175.949,25.7246 178.283,26.7246 180.5,28C 181.252,28.6708 181.586,29.5041 181.5,30.5 Z"/></g>
<g><path style="opacity:1" fill="#d2d6d3" d="M 181.5,30.5 C 182.344,34.0991 182.677,37.7657 182.5,41.5C 182.245,44.0163 181.411,46.3496 180,48.5C 171.487,56.0823 164.821,54.749 160,44.5C 159.333,40.5 159.333,36.5 160,32.5C 166.586,25.4873 173.753,24.8206 181.5,30.5 Z"/></g>
<g><path style="opacity:1" fill="#727473" d="M 90.5,117.5 C 88.8333,118.167 87.1667,118.833 85.5,119.5C 81.5483,118.804 77.5483,118.304 73.5,118C 79.1569,117.501 84.8236,117.334 90.5,117.5 Z"/></g>
<g><path style="opacity:1" fill="#8fdaea" d="M 304.5,322.5 C 298.09,326.906 291.424,330.906 284.5,334.5C 280.418,335.376 276.751,337.043 273.5,339.5C 260.495,343.223 247.495,347.056 234.5,351C 219.287,353.783 203.954,355.283 188.5,355.5C 180.833,355.5 173.167,355.5 165.5,355.5C 131.327,358.614 97.9933,354.948 65.5,344.5C 54.4316,338.46 43.4316,332.127 32.5,325.5C 31.8332,319.681 31.1665,314.014 30.5,308.5C 29.8087,292.161 29.3087,275.828 29,259.5C 29.7208,234.432 35.0541,210.432 45,187.5C 60.3541,156.578 84.5208,136.078 117.5,126C 154.091,127.652 190.591,126.485 227,122.5C 229.167,122.667 231.333,122.833 233.5,123C 280.739,143.246 307.239,179.079 313,230.5C 314.916,257.803 315.582,285.136 315,312.5C 311.604,316.065 308.104,319.398 304.5,322.5 Z"/></g>
<g><path style="opacity:1" fill="#8ed9e9" d="M 297.5,141.5 C 326.518,142.495 337.352,157.161 330,185.5C 327.223,191.943 322.723,196.777 316.5,200C 314.559,200.743 312.726,200.576 311,199.5C 309.107,194.048 306.94,188.715 304.5,183.5C 304.926,179.907 306.926,177.74 310.5,177C 314.773,170.787 313.773,165.454 307.5,161C 303.467,159.96 299.801,160.626 296.5,163C 295.167,163.667 293.833,163.667 292.5,163C 289.882,160.261 287.382,157.427 285,154.5C 284.333,153.167 284.333,151.833 285,150.5C 288.79,146.862 292.957,143.862 297.5,141.5 Z"/></g>
<g><path style="opacity:1" fill="#8ed9e9" d="M 26.5,213.5 C 22.5368,209.036 18.3702,204.702 14,200.5C 3.25441,183.266 5.75441,168.433 21.5,156C 32.564,150.034 43.564,150.034 54.5,156C 55.8993,157.062 56.8993,158.395 57.5,160C 55.2347,163.936 52.568,167.603 49.5,171C 44.8669,170.404 40.2002,169.737 35.5,169C 28.543,173.065 27.043,178.565 31,185.5C 32.4907,187.004 34.324,187.837 36.5,188C 37.8941,188.956 38.5607,190.289 38.5,192C 36.7306,197.974 34.5639,203.808 32,209.5C 31.5065,211.134 31.3398,212.801 31.5,214.5C 29.7839,214.371 28.1172,214.038 26.5,213.5 Z"/></g>
<g><path style="opacity:1" fill="#121617" d="M 107.5,147.5 C 120.215,146.208 131.882,149.041 142.5,156C 145,159.833 148.167,163 152,165.5C 155.246,171.566 157.913,177.9 160,184.5C 160.667,189.833 160.667,195.167 160,200.5C 153.375,222.992 138.375,235.659 115,238.5C 90.8359,236.597 75.8359,223.93 70,200.5C 67.6013,172.094 80.1013,154.427 107.5,147.5 Z"/></g>
<g><path style="opacity:1" fill="#fbfbfb" d="M 105.5,149.5 C 133.435,147.296 150.935,159.63 158,186.5C 158.975,212.054 147.141,228.22 122.5,235C 95.8512,237.095 79.0179,225.261 72,199.5C 70.6443,174.369 81.811,157.702 105.5,149.5 Z"/></g>
<g><path style="opacity:1" fill="#080d09" d="M 100.5,191.5 C 96.7657,191.677 93.0991,191.344 89.5,190.5C 82.0619,186.196 79.5619,179.863 82,171.5C 87.3449,162.156 94.8449,159.989 104.5,165C 110.548,170.356 112.048,176.856 109,184.5C 106.584,187.423 103.75,189.757 100.5,191.5 Z"/></g>
<g><path style="opacity:1" fill="#929593" d="M 89.5,190.5 C 93.0991,191.344 96.7657,191.677 100.5,191.5C 97.3601,192.641 94.0267,192.808 90.5,192C 89.944,191.617 89.6107,191.117 89.5,190.5 Z"/></g>
<g><path style="opacity:1" fill="#0c0e0c" d="M 166.5,217.5 C 175.347,216.667 183.181,219.001 190,224.5C 191.071,231.431 194.905,235.931 201.5,238C 203.368,240.828 205.534,243.328 208,245.5C 211.069,253.444 208.902,259.278 201.5,263C 198.574,263.218 195.74,263.718 193,264.5C 192.501,268.514 192.667,272.514 193.5,276.5C 193.194,279.532 192.694,282.532 192,285.5C 189.876,286.622 188.043,288.122 186.5,290C 182.215,290.626 178.048,290.126 174,288.5C 170.582,289.083 167.416,290.249 164.5,292C 162.833,292.667 161.167,292.667 159.5,292C 157.3,289.766 155.467,287.266 154,284.5C 153.072,278.184 152.239,271.851 151.5,265.5C 147.179,264.671 143.012,263.337 139,261.5C 133.832,256.484 133.165,250.818 137,244.5C 141.333,240.5 145.667,236.5 150,232.5C 151,229.5 152,226.5 153,223.5C 157.153,220.518 161.653,218.518 166.5,217.5 Z"/></g>
<g><path style="opacity:1" fill="#141718" d="M 220.5,142.5 C 246.914,141.6 264.081,153.6 272,178.5C 274.444,204.593 263.611,222.427 239.5,232C 219.048,236.606 202.548,230.773 190,214.5C 179.76,195.934 180.094,177.601 191,159.5C 194.75,155.301 198.917,151.634 203.5,148.5C 209.115,146.024 214.781,144.024 220.5,142.5 Z"/></g>
<g><path style="opacity:1" fill="#fbfcfb" d="M 220.5,144.5 C 246.923,143.622 263.423,155.956 270,181.5C 271.1,208.39 258.6,224.89 232.5,231C 206.979,232.148 191.146,220.315 185,195.5C 182.642,168.392 194.476,151.392 220.5,144.5 Z"/></g>
<g><path style="opacity:1" fill="#0d100d" d="M 208.5,163.5 C 224.334,162.828 230.501,170.161 227,185.5C 221.866,192.982 215.032,195.149 206.5,192C 196.559,181.604 197.225,172.104 208.5,163.5 Z"/></g>
<g><path style="opacity:1" fill="#e7b67f" d="M 203.5,259.5 C 202.033,259.894 200.533,260.227 199,260.5C 191.12,258.362 183.12,257.029 175,256.5C 169.143,256.009 163.643,257.175 158.5,260C 153.5,260.667 148.5,260.667 143.5,260C 140.642,258.306 138.309,256.139 136.5,253.5C 137.92,245.891 142.254,240.391 149.5,237C 151.5,236.333 153.5,236.333 155.5,237C 160.322,239.719 165.489,241.219 171,241.5C 177.74,240.13 184.407,238.463 191,236.5C 200.041,237.874 205.541,243.041 207.5,252C 207.587,255.329 206.254,257.829 203.5,259.5 Z"/></g>
<g><path style="opacity:1" fill="#d5ae89" d="M 136.5,253.5 C 138.309,256.139 140.642,258.306 143.5,260C 148.5,260.667 153.5,260.667 158.5,260C 163.643,257.175 169.143,256.009 175,256.5C 183.12,257.029 191.12,258.362 199,260.5C 200.533,260.227 202.033,259.894 203.5,259.5C 203.389,260.117 203.056,260.617 202.5,261C 200.833,261.167 199.167,261.333 197.5,261.5C 190.062,259.963 182.562,258.963 175,258.5C 168.813,257.964 162.98,259.131 157.5,262C 153.167,262.667 148.833,262.667 144.5,262C 139.903,260.905 137.237,258.072 136.5,253.5 Z"/></g>
<g><path style="opacity:1" fill="#f5f5f5" d="M 175.5,261.5 C 179.182,261.335 182.848,261.501 186.5,262C 188.049,263.214 189.215,264.714 190,266.5C 190.818,272.902 190.484,279.235 189,285.5C 186.091,288.394 182.591,289.227 178.5,288C 176.951,286.786 175.785,285.286 175,283.5C 174.204,276.087 174.37,268.754 175.5,261.5 Z"/></g>
<g><path style="opacity:1" fill="#f3f3f3" d="M 165.5,261.5 C 167.467,261.261 169.301,261.594 171,262.5C 173.202,270.274 172.868,277.94 170,285.5C 165.951,291.94 161.617,291.94 157,285.5C 154.882,279.649 154.215,273.649 155,267.5C 158.101,264.648 161.601,262.648 165.5,261.5 Z"/></g>
<g><path style="opacity:1" fill="#bebba3" d="M 315.5,315.5 C 315.52,323.347 315.187,331.18 314.5,339C 315.932,353.476 316.432,367.976 316,382.5C 313.778,386.388 310.612,389.221 306.5,391C 300.178,392.942 293.844,394.775 287.5,396.5C 270.311,402.133 252.644,404.299 234.5,403C 232.959,401.421 231.792,399.587 231,397.5C 230.333,383.167 230.333,368.833 231,354.5C 240.01,351.287 249.177,348.454 258.5,346C 263.807,344.295 268.807,342.129 273.5,339.5C 277.582,338.624 281.249,336.957 284.5,334.5C 292.508,332.135 299.508,328.135 305.5,322.5C 308.851,320.141 312.185,317.808 315.5,315.5 Z"/></g>
<g><path style="opacity:1" fill="#171614" d="M 315.5,315.5 C 316.697,321.137 317.697,326.804 318.5,332.5C 318.334,338.509 318.501,344.509 319,350.5C 322.301,350.499 325.801,350.666 329.5,351C 333.346,352.086 336.68,353.919 339.5,356.5C 333.247,353.272 326.58,351.938 319.5,352.5C 319.334,357.511 319.501,362.511 320,367.5C 325.223,376.529 333.057,381.029 343.5,381C 344.672,379.132 344.505,377.298 343,375.5C 340.743,373.954 338.576,372.288 336.5,370.5C 338.836,369.977 341.17,370.477 343.5,372C 344.759,374.727 346.759,376.561 349.5,377.5C 347.773,381.062 344.94,382.729 341,382.5C 337.358,382.287 333.858,381.453 330.5,380C 327.656,377.819 324.822,375.653 322,373.5C 320.5,373.667 319.667,374.5 319.5,376C 319.403,389.396 319.57,402.896 320,416.5C 321.008,425.987 321.841,435.487 322.5,445C 323.313,470.748 319.813,495.915 312,520.5C 307.027,531.782 301.027,542.449 294,552.5C 293.297,554.929 293.463,557.262 294.5,559.5C 283.281,554.944 273.781,557.278 266,566.5C 265.333,568.167 265.333,569.833 266,571.5C 267.992,572.328 269.492,573.661 270.5,575.5C 267.852,574.838 265.185,574.171 262.5,573.5C 251.75,577.359 240.75,580.526 229.5,583C 211.087,585.207 192.754,587.874 174.5,591C 157.833,591.667 141.167,591.667 124.5,591C 113.01,587.08 101.676,582.914 90.5,578.5C 87.5666,578.466 84.9,579.299 82.5,581C 75.772,586.059 68.772,590.726 61.5,595C 54.3891,596.938 49.0558,594.771 45.5,588.5C 46.1667,588.5 46.5,588.167 46.5,587.5C 47.923,581.076 51.5896,576.41 57.5,573.5C 58.521,574.002 58.6877,574.668 58,575.5C 53.3136,578.675 50.4803,583.008 49.5,588.5C 50.2374,592.471 52.7374,594.138 57,593.5C 58.5,593.333 60,593.167 61.5,593C 69.9149,587.375 78.4149,581.875 87,576.5C 87.7063,574.029 87.373,571.695 86,569.5C 82.5,566.667 79,563.833 75.5,561C 72.9234,559.75 70.2567,559.416 67.5,560C 63.7802,561.86 60.1136,563.693 56.5,565.5C 57.292,563.743 58.6253,562.409 60.5,561.5C 61.6309,559.926 61.7975,558.259 61,556.5C 56.6667,550.833 52.3333,545.167 48,539.5C 46.5301,536.256 45.3634,532.923 44.5,529.5C 49.2665,536.244 53.7665,543.244 58,550.5C 60.1667,552.667 62.3333,554.833 64.5,557C 69.2621,557.967 73.9288,559.301 78.5,561C 84.8548,566.357 90.8548,572.023 96.5,578C 112.213,587.679 129.38,591.512 148,589.5C 160.965,589.928 173.798,588.928 186.5,586.5C 187.314,584.369 187.814,582.036 188,579.5C 188.497,581.81 188.663,584.143 188.5,586.5C 189.791,586.737 190.791,586.404 191.5,585.5C 212.766,584.896 233.433,581.063 253.5,574C 258.394,572.314 261.894,569.147 264,564.5C 270.847,556.161 279.68,552.328 290.5,553C 295.442,548.286 299.275,542.786 302,536.5C 315.483,511.034 321.316,483.867 319.5,455C 319.475,433.415 318.142,411.915 315.5,390.5C 314.833,389.833 314.167,389.167 313.5,388.5C 305.19,393.827 296.19,397.161 286.5,398.5C 286.833,397.833 287.167,397.167 287.5,396.5C 293.844,394.775 300.178,392.942 306.5,391C 310.612,389.221 313.778,386.388 316,382.5C 316.432,367.976 315.932,353.476 314.5,339C 315.187,331.18 315.52,323.347 315.5,315.5 Z"/></g>
<g><path style="opacity:1" fill="#bebba3" d="M 64.5,344.5 C 70.5548,348.198 77.2215,350.698 84.5,352C 95.4634,354.21 106.463,356.21 117.5,358C 118.059,358.725 118.392,359.558 118.5,360.5C 115.776,373.844 112.942,387.178 110,400.5C 109.208,402.587 108.041,404.421 106.5,406C 100.833,406.667 95.1667,406.667 89.5,406C 82.201,404.307 74.8677,402.807 67.5,401.5C 60.9295,399.182 54.2628,396.848 47.5,394.5C 42.6919,393.179 38.1919,391.179 34,388.5C 33.831,375.327 33.331,362.327 32.5,349.5C 31.9989,342.163 31.8322,334.83 32,327.5C 42.0773,334.584 52.9107,340.25 64.5,344.5 Z"/></g>
<g><path style="opacity:1" fill="#484e49" d="M 304.5,322.5 C 304.833,322.5 305.167,322.5 305.5,322.5C 299.508,328.135 292.508,332.135 284.5,334.5C 291.424,330.906 298.09,326.906 304.5,322.5 Z"/></g>
<g><path style="opacity:1" fill="#3f4542" d="M 284.5,334.5 C 281.249,336.957 277.582,338.624 273.5,339.5C 276.751,337.043 280.418,335.376 284.5,334.5 Z"/></g>
<g><path style="opacity:1" fill="#e1b27a" d="M 339.5,356.5 C 339.973,357.906 340.973,358.573 342.5,358.5C 345.338,361.521 347.672,364.854 349.5,368.5C 349.833,368.5 350.167,368.5 350.5,368.5C 350.5,371.5 350.5,374.5 350.5,377.5C 350.167,377.5 349.833,377.5 349.5,377.5C 346.759,376.561 344.759,374.727 343.5,372C 341.17,370.477 338.836,369.977 336.5,370.5C 338.576,372.288 340.743,373.954 343,375.5C 344.505,377.298 344.672,379.132 343.5,381C 333.057,381.029 325.223,376.529 320,367.5C 319.501,362.511 319.334,357.511 319.5,352.5C 326.58,351.938 333.247,353.272 339.5,356.5 Z"/></g>
<g><path style="opacity:1" fill="#131310" d="M 165.5,355.5 C 173.167,355.5 180.833,355.5 188.5,355.5C 188.5,356.167 188.5,356.833 188.5,357.5C 186.167,357.5 183.833,357.5 181.5,357.5C 181.238,358.978 181.571,360.311 182.5,361.5C 185.196,362.851 187.53,364.684 189.5,367C 187.934,367.3 186.601,366.8 185.5,365.5C 182.88,363.895 180.047,362.562 177,361.5C 176.517,362.448 176.351,363.448 176.5,364.5C 175.85,364.196 175.183,363.863 174.5,363.5C 173.751,366.527 173.084,369.527 172.5,372.5C 171.732,373.263 171.232,374.263 171,375.5C 170.536,374.906 170.369,374.239 170.5,373.5C 170.82,370.102 170.487,366.768 169.5,363.5C 168.482,364.193 167.482,364.859 166.5,365.5C 167.087,364.233 167.087,363.233 166.5,362.5C 164.259,363.129 162.259,364.129 160.5,365.5C 159.508,365.672 158.842,365.338 158.5,364.5C 161.891,363.471 164.557,361.471 166.5,358.5C 165.667,358.167 164.833,357.833 164,357.5C 160.074,358.273 156.241,359.273 152.5,360.5C 153.167,359.833 153.833,359.167 154.5,358.5C 155.833,358.167 157.167,357.833 158.5,357.5C 160.952,356.935 163.285,356.268 165.5,355.5 Z"/></g>
<g><path style="opacity:1" fill="#bfbca5" d="M 286.5,398.5 C 296.19,397.161 305.19,393.827 313.5,388.5C 314.167,389.167 314.833,389.833 315.5,390.5C 318.142,411.915 319.475,433.415 319.5,455C 321.316,483.867 315.483,511.034 302,536.5C 299.275,542.786 295.442,548.286 290.5,553C 279.68,552.328 270.847,556.161 264,564.5C 261.894,569.147 258.394,572.314 253.5,574C 233.433,581.063 212.766,584.896 191.5,585.5C 189.803,583.695 188.97,581.361 189,578.5C 188.83,567.326 188.33,556.326 187.5,545.5C 187.5,545.167 187.5,544.833 187.5,544.5C 187.861,535.605 187.194,526.939 185.5,518.5C 184.032,512.955 182.698,507.288 181.5,501.5C 180.667,486.511 180.167,471.511 180,456.5C 178.667,449.167 177.333,441.833 176,434.5C 175.667,421.167 175.333,407.833 175,394.5C 173.538,387.253 172.704,379.92 172.5,372.5C 173.084,369.527 173.751,366.527 174.5,363.5C 175.183,363.863 175.85,364.196 176.5,364.5C 176.263,365.791 176.596,366.791 177.5,367.5C 180.038,374.703 183.038,381.703 186.5,388.5C 188.29,393.152 190.79,397.485 194,401.5C 196.086,404.094 198.586,406.094 201.5,407.5C 203.86,409.853 206.527,411.853 209.5,413.5C 210.401,415.727 212.067,416.727 214.5,416.5C 214.256,411.933 213.09,407.599 211,403.5C 211.204,396.663 211.037,389.996 210.5,383.5C 210.186,377.203 207.519,372.203 202.5,368.5C 201.167,365.167 198.833,362.833 195.5,361.5C 194.284,359.549 192.618,358.049 190.5,357C 203.185,356.274 215.852,355.44 228.5,354.5C 228.333,367.837 228.5,381.171 229,394.5C 229.891,398.606 231.058,402.606 232.5,406.5C 250.901,406.348 268.901,403.681 286.5,398.5 Z"/></g>
<g><path style="opacity:1" fill="#313531" d="M 64.5,344.5 C 64.8333,344.5 65.1667,344.5 65.5,344.5C 97.9933,354.948 131.327,358.614 165.5,355.5C 163.285,356.268 160.952,356.935 158.5,357.5C 146.167,356.167 133.833,356.167 121.5,357.5C 120.073,359.148 119.24,361.148 119,363.5C 116.862,376.186 114.195,388.853 111,401.5C 110.235,404.196 109.068,406.696 107.5,409C 93.5116,408.835 79.8449,406.669 66.5,402.5C 66.5,401.833 66.8333,401.5 67.5,401.5C 74.8677,402.807 82.201,404.307 89.5,406C 95.1667,406.667 100.833,406.667 106.5,406C 108.041,404.421 109.208,402.587 110,400.5C 112.942,387.178 115.776,373.844 118.5,360.5C 118.392,359.558 118.059,358.725 117.5,358C 106.463,356.21 95.4634,354.21 84.5,352C 77.2215,350.698 70.5548,348.198 64.5,344.5 Z"/></g>
<g><path style="opacity:1" fill="#89897b" d="M 121.5,357.5 C 133.833,356.167 146.167,356.167 158.5,357.5C 157.167,357.833 155.833,358.167 154.5,358.5C 143.679,357.505 132.679,357.172 121.5,357.5 Z"/></g>
<g><path style="opacity:1" fill="#222921" d="M 286.5,384.5 C 280.077,386.651 273.41,388.317 266.5,389.5C 265.106,389.379 263.772,389.046 262.5,388.5C 261.334,378.183 261.168,367.849 262,357.5C 262.5,357 263,356.5 263.5,356C 268.523,355.107 273.523,354.107 278.5,353C 281.071,352.099 283.404,350.766 285.5,349C 287.441,348.257 289.274,348.424 291,349.5C 292.626,360.094 293.292,370.76 293,381.5C 291.157,383.171 288.991,384.171 286.5,384.5 Z"/></g>
<g><path style="opacity:1" fill="#41724a" d="M 286.5,384.5 C 279.88,384.883 273.38,385.883 267,387.5C 265.564,387.441 264.231,387.108 263,386.5C 262.168,377.149 262.335,367.816 263.5,358.5C 269.024,356.773 274.691,355.273 280.5,354C 282.332,353.252 283.999,352.252 285.5,351C 287.112,350.28 288.612,350.446 290,351.5C 290.422,359.338 290.922,367.172 291.5,375C 291.167,377.167 290.833,379.333 290.5,381.5C 288.739,382.035 287.406,383.035 286.5,384.5 Z"/></g>
<g><path style="opacity:1" fill="#241612" d="M 339.5,356.5 C 341.027,356.427 342.027,357.094 342.5,358.5C 340.973,358.573 339.973,357.906 339.5,356.5 Z"/></g>
<g><path style="opacity:1" fill="#bfbca5" d="M 121.5,357.5 C 132.679,357.172 143.679,357.505 154.5,358.5C 153.833,359.167 153.167,359.833 152.5,360.5C 148.085,362.393 143.751,364.56 139.5,367C 138.619,367.708 137.953,368.542 137.5,369.5C 134.092,370.578 132.092,372.911 131.5,376.5C 130.833,376.5 130.5,376.833 130.5,377.5C 128.76,379.974 127.26,382.641 126,385.5C 124.899,393.145 123.899,400.811 123,408.5C 121.173,412.467 119.673,416.467 118.5,420.5C 124.024,420.223 128.69,418.223 132.5,414.5C 140.444,410.889 146.444,405.222 150.5,397.5C 151.906,397.027 152.573,396.027 152.5,394.5C 153.901,391.366 155.568,388.366 157.5,385.5C 159.614,384.216 160.614,382.216 160.5,379.5C 162.623,376.133 163.956,372.466 164.5,368.5C 165.167,367.5 165.833,366.5 166.5,365.5C 167.482,364.859 168.482,364.193 169.5,363.5C 170.487,366.768 170.82,370.102 170.5,373.5C 169.861,374.097 169.528,374.93 169.5,376C 171.041,383.825 172.541,391.658 174,399.5C 174.333,413.5 174.667,427.5 175,441.5C 176,446.833 177,452.167 178,457.5C 178.333,471.833 178.667,486.167 179,500.5C 179.938,507.675 181.605,514.675 184,521.5C 184.484,531.838 184.984,542.172 185.5,552.5C 185.34,563.854 185.674,575.187 186.5,586.5C 173.798,588.928 160.965,589.928 148,589.5C 129.38,591.512 112.213,587.679 96.5,578C 90.8548,572.023 84.8548,566.357 78.5,561C 73.9288,559.301 69.2621,557.967 64.5,557C 62.3333,554.833 60.1667,552.667 58,550.5C 53.7665,543.244 49.2665,536.244 44.5,529.5C 44.573,527.973 43.9063,526.973 42.5,526.5C 38.4567,515.584 34.6234,504.584 31,493.5C 30.9891,469.158 31.4891,444.825 32.5,420.5C 33.4938,411.014 33.8271,401.348 33.5,391.5C 37.2644,392.548 40.931,393.881 44.5,395.5C 51.6035,398.118 58.9368,400.451 66.5,402.5C 79.8449,406.669 93.5116,408.835 107.5,409C 109.068,406.696 110.235,404.196 111,401.5C 114.195,388.853 116.862,376.186 119,363.5C 119.24,361.148 120.073,359.148 121.5,357.5 Z"/></g>
<g><path style="opacity:1" fill="#d11e22" d="M 188.5,357.5 C 190.663,359.083 192.996,360.416 195.5,361.5C 197.5,364.167 199.833,366.5 202.5,368.5C 205.44,373.381 208.106,378.381 210.5,383.5C 210.209,388.665 209.876,393.831 209.5,399C 209.352,403.025 210.019,406.859 211.5,410.5C 211.631,411.376 211.298,412.043 210.5,412.5C 208.076,411.577 206.076,410.077 204.5,408C 203.552,407.517 202.552,407.351 201.5,407.5C 196.268,401.379 191.268,395.045 186.5,388.5C 183.038,381.703 180.038,374.703 177.5,367.5C 179.635,365.631 182.302,364.964 185.5,365.5C 186.601,366.8 187.934,367.3 189.5,367C 187.53,364.684 185.196,362.851 182.5,361.5C 181.571,360.311 181.238,358.978 181.5,357.5C 183.833,357.5 186.167,357.5 188.5,357.5 Z"/></g>
<g><path style="opacity:1" fill="#d11f22" d="M 158.5,364.5 C 155.37,365.572 152.704,367.406 150.5,370C 151.833,370.667 153.167,370.667 154.5,370C 156.063,368.053 158.063,366.886 160.5,366.5C 162.872,364.852 164.206,365.519 164.5,368.5C 163.956,372.466 162.623,376.133 160.5,379.5C 158.992,381.181 157.992,383.181 157.5,385.5C 155.568,388.366 153.901,391.366 152.5,394.5C 151.094,394.973 150.427,395.973 150.5,397.5C 145.077,403.927 139.077,409.594 132.5,414.5C 130.266,415.447 127.932,416.114 125.5,416.5C 124.5,416.167 123.5,415.833 122.5,415.5C 123.577,413.271 124.244,410.937 124.5,408.5C 125.268,407.737 125.768,406.737 126,405.5C 126.499,400.511 126.666,395.511 126.5,390.5C 127.833,386.167 129.167,381.833 130.5,377.5C 130.5,376.833 130.833,376.5 131.5,376.5C 133.471,374.192 135.471,371.858 137.5,369.5C 137.953,368.542 138.619,367.708 139.5,367C 143.751,364.56 148.085,362.393 152.5,360.5C 156.241,359.273 160.074,358.273 164,357.5C 164.833,357.833 165.667,358.167 166.5,358.5C 164.557,361.471 161.891,363.471 158.5,364.5 Z"/></g>
<g><path style="opacity:1" fill="#292a25" d="M 43.5,368.5 C 42.8826,368.389 42.3826,368.056 42,367.5C 41.0218,364.331 41.5218,361.497 43.5,359C 47.6353,357.967 49.8019,359.467 50,363.5C 46.5691,357.846 44.0691,358.18 42.5,364.5C 42.8457,365.849 43.179,367.183 43.5,368.5 Z"/></g>
<g><path style="opacity:1" fill="#ced5cf" d="M 266.5,360.5 C 268.856,359.32 271.189,359.654 273.5,361.5C 272.418,363.784 270.752,364.95 268.5,365C 271.033,362.539 270.367,361.039 266.5,360.5 Z"/></g>
<g><path style="opacity:1" fill="#1a0f0b" d="M 342.5,358.5 C 346.777,360.362 349.111,363.695 349.5,368.5C 347.672,364.854 345.338,361.521 342.5,358.5 Z"/></g>
<g><path style="opacity:1" fill="#9b292c" d="M 166.5,365.5 C 165.833,366.5 165.167,367.5 164.5,368.5C 164.206,365.519 162.872,364.852 160.5,366.5C 160.5,366.167 160.5,365.833 160.5,365.5C 162.259,364.129 164.259,363.129 166.5,362.5C 167.087,363.233 167.087,364.233 166.5,365.5 Z"/></g>
<g><path style="opacity:1" fill="#9f2e30" d="M 185.5,365.5 C 182.302,364.964 179.635,365.631 177.5,367.5C 176.596,366.791 176.263,365.791 176.5,364.5C 176.351,363.448 176.517,362.448 177,361.5C 180.047,362.562 182.88,363.895 185.5,365.5 Z"/></g>
<g><path style="opacity:1" fill="#6c3f34" d="M 195.5,361.5 C 198.833,362.833 201.167,365.167 202.5,368.5C 199.833,366.5 197.5,364.167 195.5,361.5 Z"/></g>
<g><path style="opacity:1" fill="#d0d4cf" d="M 281.5,362.5 C 282.043,362.56 282.376,362.893 282.5,363.5C 280.577,364.648 278.577,365.148 276.5,365C 278.175,364.015 279.842,363.181 281.5,362.5 Z"/></g>
<g><path style="opacity:1" fill="#404038" d="M 43.5,368.5 C 44.5832,368.539 45.5832,368.873 46.5,369.5C 47.1131,368.02 47.4464,366.687 47.5,365.5C 50.2996,367.771 49.9662,369.438 46.5,370.5C 44.9623,370.547 43.9623,369.88 43.5,368.5 Z"/></g>
<g><path style="opacity:1" fill="#b0af9a" d="M 55.5,366.5 C 58.5837,370.979 57.5837,372.979 52.5,372.5C 52.3398,370.801 52.5065,369.134 53,367.5C 53.6708,366.748 54.5041,366.414 55.5,366.5 Z"/></g>
<g><path style="opacity:1" fill="#461312" d="M 158.5,364.5 C 158.842,365.338 159.508,365.672 160.5,365.5C 160.5,365.833 160.5,366.167 160.5,366.5C 158.063,366.886 156.063,368.053 154.5,370C 153.167,370.667 151.833,370.667 150.5,370C 152.704,367.406 155.37,365.572 158.5,364.5 Z"/></g>
<g><path style="opacity:1" fill="#3d3d36" d="M 55.5,366.5 C 54.5041,366.414 53.6708,366.748 53,367.5C 52.5065,369.134 52.3398,370.801 52.5,372.5C 49.6375,369.603 50.1375,367.269 54,365.5C 54.7648,365.57 55.2648,365.903 55.5,366.5 Z"/></g>
<g><path style="opacity:1" fill="#53201a" d="M 137.5,369.5 C 135.471,371.858 133.471,374.192 131.5,376.5C 132.092,372.911 134.092,370.578 137.5,369.5 Z"/></g>
<g><path style="opacity:1" fill="#30302a" d="M 55.5,366.5 C 56.4959,366.414 57.3292,366.748 58,367.5C 59.2052,370.868 58.2052,373.202 55,374.5C 53.699,374.361 52.8656,373.695 52.5,372.5C 57.5837,372.979 58.5837,370.979 55.5,366.5 Z"/></g>
<g><path style="opacity:1" fill="#272923" d="M 62.5,365.5 C 64.5824,365.472 66.4157,366.139 68,367.5C 68.6667,368.167 68.6667,368.833 68,369.5C 66.4447,367.485 64.6114,367.152 62.5,368.5C 64.3722,370.535 66.0389,372.702 67.5,375C 67.1379,376.885 65.9713,377.719 64,377.5C 61.2209,377.39 59.8875,376.056 60,373.5C 61.2635,375.607 63.0968,376.607 65.5,376.5C 65.4312,373.916 64.2645,371.916 62,370.5C 61.3603,368.735 61.5269,367.068 62.5,365.5 Z"/></g>
<g><path style="opacity:1" fill="#54261f" d="M 202.5,368.5 C 207.519,372.203 210.186,377.203 210.5,383.5C 208.106,378.381 205.44,373.381 202.5,368.5 Z"/></g>
<g><path style="opacity:1" fill="#cdd4ce" d="M 285.5,368.5 C 286.999,371.342 287.333,374.342 286.5,377.5C 285.614,376.675 285.281,375.675 285.5,374.5C 284.5,374.5 283.5,374.5 282.5,374.5C 282.769,376.429 282.269,378.095 281,379.5C 280.333,376.5 280.333,373.5 281,370.5C 284.013,374.587 285.513,373.92 285.5,368.5 Z"/></g>
<g><path style="opacity:1" fill="#4a4a41" d="M 71.5,371.5 C 73.4835,371.383 75.1502,372.05 76.5,373.5C 74.9793,373.88 73.3126,374.046 71.5,374C 70.6198,375.356 70.2865,376.856 70.5,378.5C 72.1992,378.34 73.8659,378.506 75.5,379C 70.6477,381.487 68.481,379.987 69,374.5C 70.045,373.627 70.8783,372.627 71.5,371.5 Z"/></g>
<g><path style="opacity:1" fill="#ebedeb" d="M 273.5,373.5 C 274.82,374.942 276.486,375.608 278.5,375.5C 279.158,379.677 277.492,381.177 273.5,380C 278.002,379.065 278.335,377.731 274.5,376C 273.748,375.329 273.414,374.496 273.5,373.5 Z"/></g>
<g><path style="opacity:1" fill="#3f3e36" d="M 98.5,375.5 C 99.9311,376.082 101.264,376.915 102.5,378C 98.2001,379.031 97.5334,381.198 100.5,384.5C 98.5054,385.89 97.172,385.39 96.5,383C 97.1083,380.447 97.775,377.947 98.5,375.5 Z"/></g>
<g><path style="opacity:1" fill="#d7dbd8" d="M 267.5,373.5 C 268.552,373.351 269.552,373.517 270.5,374C 269.328,374.419 268.328,375.085 267.5,376C 272.862,379.242 272.528,381.242 266.5,382C 267.448,381.517 268.448,381.351 269.5,381.5C 269.112,379.315 268.112,377.482 266.5,376C 266.743,375.098 267.077,374.265 267.5,373.5 Z"/></g>
<g><path style="opacity:1" fill="#1b1f1a" d="M 93.5,379.5 C 93.272,377.645 93.9387,376.812 95.5,377C 94.9341,377.995 94.2674,378.828 93.5,379.5 Z"/></g>
<g><path style="opacity:1" fill="#1b1612" d="M 30.5,308.5 C 31.1665,314.014 31.8332,319.681 32.5,325.5C 43.4316,332.127 54.4316,338.46 65.5,344.5C 65.1667,344.5 64.8333,344.5 64.5,344.5C 52.9107,340.25 42.0773,334.584 32,327.5C 31.8322,334.83 31.9989,342.163 32.5,349.5C 33.0974,359.097 32.4308,368.43 30.5,377.5C 28.5,378.5 26.5,379.5 24.5,380.5C 20.2187,385.184 14.8854,386.684 8.5,385C 5.00145,382.604 2.00145,379.771 -0.5,376.5C -0.5,375.5 -0.5,374.5 -0.5,373.5C 7.15298,362.335 17.8197,356.335 31.5,355.5C 32.08,347.771 31.08,340.271 28.5,333C 28.8487,326.605 28.8487,320.105 28.5,313.5C 29.2216,313.918 29.7216,314.584 30,315.5C 30.4966,313.19 30.6633,310.857 30.5,308.5 Z"/></g>
<g><path style="opacity:1" fill="#e4b47c" d="M 24.5,380.5 C 20.2854,383.404 15.6187,384.57 10.5,384C 9.0611,383.009 8.0611,381.676 7.5,380C 9.01899,378.649 10.3523,377.149 11.5,375.5C 10.635,374.417 9.63505,374.251 8.5,375C 4.42432,380.078 2.25765,379.578 2,373.5C 8.78576,363.191 18.2858,358.358 30.5,359C 31.6349,363.748 31.8015,368.581 31,373.5C 28.6278,375.703 26.4611,378.037 24.5,380.5 Z"/></g>
<g><path style="opacity:1" fill="#30312d" d="M 273.5,339.5 C 268.807,342.129 263.807,344.295 258.5,346C 249.177,348.454 240.01,351.287 231,354.5C 230.333,368.833 230.333,383.167 231,397.5C 231.792,399.587 232.959,401.421 234.5,403C 252.644,404.299 270.311,402.133 287.5,396.5C 287.167,397.167 286.833,397.833 286.5,398.5C 268.901,403.681 250.901,406.348 232.5,406.5C 231.058,402.606 229.891,398.606 229,394.5C 228.5,381.171 228.333,367.837 228.5,354.5C 215.852,355.44 203.185,356.274 190.5,357C 192.618,358.049 194.284,359.549 195.5,361.5C 192.996,360.416 190.663,359.083 188.5,357.5C 188.5,356.833 188.5,356.167 188.5,355.5C 203.954,355.283 219.287,353.783 234.5,351C 247.495,347.056 260.495,343.223 273.5,339.5 Z"/></g>
<g><path style="opacity:1" fill="#3b3c35" d="M 78.5,380.5 C 77.0584,378.183 77.3918,376.016 79.5,374C 85.6007,373.877 86.934,376.377 83.5,381.5C 81.38,383.009 79.7133,382.676 78.5,380.5 Z"/></g>
<g><path style="opacity:1" fill="#b0ae99" d="M 78.5,380.5 C 78.0146,375.841 79.848,374.508 84,376.5C 84.4922,377.549 84.3256,378.549 83.5,379.5C 81.9547,380.452 80.288,380.785 78.5,380.5 Z"/></g>
<g><path style="opacity:1" fill="#23251f" d="M 93.5,379.5 C 93.67,380.822 93.3366,381.989 92.5,383C 90.5273,383.495 88.5273,383.662 86.5,383.5C 86.4354,380.529 87.2687,377.862 89,375.5C 88.7932,377.751 88.6265,380.085 88.5,382.5C 90.9589,382.69 92.6255,381.69 93.5,379.5 Z"/></g>
<g><path style="opacity:1" fill="#8f6454" d="M 160.5,379.5 C 160.614,382.216 159.614,384.216 157.5,385.5C 157.992,383.181 158.992,381.181 160.5,379.5 Z"/></g>
<g><path style="opacity:1" fill="#292a25" d="M 32.5,349.5 C 33.331,362.327 33.831,375.327 34,388.5C 38.1919,391.179 42.6919,393.179 47.5,394.5C 46.791,395.404 45.791,395.737 44.5,395.5C 40.931,393.881 37.2644,392.548 33.5,391.5C 33.8271,401.348 33.4938,411.014 32.5,420.5C 32.5,410.5 32.5,400.5 32.5,390.5C 33.0969,385.706 32.4302,381.373 30.5,377.5C 32.4308,368.43 33.0974,359.097 32.5,349.5 Z"/></g>
<g><path style="opacity:1" fill="#731d1e" d="M 126.5,390.5 C 126.666,395.511 126.499,400.511 126,405.5C 125.768,406.737 125.268,407.737 124.5,408.5C 124.982,402.34 125.649,396.34 126.5,390.5 Z"/></g>
<g><path style="opacity:1" fill="#59342a" d="M 152.5,394.5 C 152.573,396.027 151.906,397.027 150.5,397.5C 150.427,395.973 151.094,394.973 152.5,394.5 Z"/></g>
<g><path style="opacity:1" fill="#626155" d="M 47.5,394.5 C 54.2628,396.848 60.9295,399.182 67.5,401.5C 66.8333,401.5 66.5,401.833 66.5,402.5C 58.9368,400.451 51.6035,398.118 44.5,395.5C 45.791,395.737 46.791,395.404 47.5,394.5 Z"/></g>
<g><path style="opacity:1" fill="#3e1f19" d="M 130.5,377.5 C 129.167,381.833 127.833,386.167 126.5,390.5C 125.649,396.34 124.982,402.34 124.5,408.5C 124.244,410.937 123.577,413.271 122.5,415.5C 123.5,415.833 124.5,416.167 125.5,416.5C 127.932,416.114 130.266,415.447 132.5,414.5C 128.69,418.223 124.024,420.223 118.5,420.5C 119.673,416.467 121.173,412.467 123,408.5C 123.899,400.811 124.899,393.145 126,385.5C 127.26,382.641 128.76,379.974 130.5,377.5 Z"/></g>
<g><path style="opacity:1" fill="#4f2a22" d="M 186.5,388.5 C 191.268,395.045 196.268,401.379 201.5,407.5C 198.586,406.094 196.086,404.094 194,401.5C 190.79,397.485 188.29,393.152 186.5,388.5 Z"/></g>
<g><path style="opacity:1" fill="#62352b" d="M 150.5,397.5 C 146.444,405.222 140.444,410.889 132.5,414.5C 139.077,409.594 145.077,403.927 150.5,397.5 Z"/></g>
<g><path style="opacity:1" fill="#642520" d="M 201.5,407.5 C 202.552,407.351 203.552,407.517 204.5,408C 206.076,410.077 208.076,411.577 210.5,412.5C 211.298,412.043 211.631,411.376 211.5,410.5C 212.404,411.209 212.737,412.209 212.5,413.5C 211.5,413.5 210.5,413.5 209.5,413.5C 206.527,411.853 203.86,409.853 201.5,407.5 Z"/></g>
<g><path style="opacity:1" fill="#291713" d="M 210.5,383.5 C 211.037,389.996 211.204,396.663 211,403.5C 213.09,407.599 214.256,411.933 214.5,416.5C 212.067,416.727 210.401,415.727 209.5,413.5C 210.5,413.5 211.5,413.5 212.5,413.5C 212.737,412.209 212.404,411.209 211.5,410.5C 210.019,406.859 209.352,403.025 209.5,399C 209.876,393.831 210.209,388.665 210.5,383.5 Z"/></g>
<g><path style="opacity:1" fill="#373833" d="M 180.5,421.5 C 184.161,421.35 185.161,422.85 183.5,426C 179.707,426.487 178.707,424.987 180.5,421.5 Z"/></g>
<g><path style="opacity:1" fill="#1c1c1c" d="M 32.5,390.5 C 32.5,400.5 32.5,410.5 32.5,420.5C 31.4891,444.825 30.9891,469.158 31,493.5C 34.6234,504.584 38.4567,515.584 42.5,526.5C 40.1397,524.287 38.3063,521.621 37,518.5C 33.7069,509.325 31.0402,499.991 29,490.5C 28.3333,474.167 28.3333,457.833 29,441.5C 30.6184,424.378 31.7851,407.378 32.5,390.5 Z"/></g>
<g><path style="opacity:1" fill="#46463f" d="M 186.5,474.5 C 187.833,474.5 189.167,474.5 190.5,474.5C 190.5,476.167 190.5,477.833 190.5,479.5C 186.065,480.078 184.732,478.411 186.5,474.5 Z"/></g>
<g><path style="opacity:1" fill="#383935" d="M 190.5,523.5 C 191.833,523.5 193.167,523.5 194.5,523.5C 194.5,524.833 194.5,526.167 194.5,527.5C 193.167,527.5 191.833,527.5 190.5,527.5C 190.5,526.167 190.5,524.833 190.5,523.5 Z"/></g>
<g><path style="opacity:1" fill="#272726" d="M 42.5,526.5 C 43.9063,526.973 44.573,527.973 44.5,529.5C 43.0937,529.027 42.427,528.027 42.5,526.5 Z"/></g>
<g><path style="opacity:1" fill="#21211d" d="M 172.5,372.5 C 172.704,379.92 173.538,387.253 175,394.5C 175.333,407.833 175.667,421.167 176,434.5C 177.333,441.833 178.667,449.167 180,456.5C 180.167,471.511 180.667,486.511 181.5,501.5C 182.698,507.288 184.032,512.955 185.5,518.5C 185.759,527.347 186.426,536.014 187.5,544.5C 187.5,544.833 187.5,545.167 187.5,545.5C 187.667,556.505 187.5,567.505 187,578.5C 186.83,569.657 186.33,560.99 185.5,552.5C 184.984,542.172 184.484,531.838 184,521.5C 181.605,514.675 179.938,507.675 179,500.5C 178.667,486.167 178.333,471.833 178,457.5C 177,452.167 176,446.833 175,441.5C 174.667,427.5 174.333,413.5 174,399.5C 172.541,391.658 171.041,383.825 169.5,376C 169.528,374.93 169.861,374.097 170.5,373.5C 170.369,374.239 170.536,374.906 171,375.5C 171.232,374.263 171.732,373.263 172.5,372.5 Z"/></g>
<g><path style="opacity:1" fill="#757366" d="M 185.5,518.5 C 187.194,526.939 187.861,535.605 187.5,544.5C 186.426,536.014 185.759,527.347 185.5,518.5 Z"/></g>
<g><path style="opacity:1" fill="#e5b57d" d="M 294.5,559.5 C 295.167,559.5 295.5,559.833 295.5,560.5C 296.167,562.5 297.5,563.833 299.5,564.5C 300.5,564.833 301.167,565.5 301.5,566.5C 301.427,568.027 302.094,569.027 303.5,569.5C 305.156,575.365 305.823,581.365 305.5,587.5C 304.312,588.684 303.145,588.684 302,587.5C 299.907,581.64 296.574,576.64 292,572.5C 294.168,577.408 296.501,582.408 299,587.5C 299.64,589.265 299.473,590.932 298.5,592.5C 294.751,592.249 291.085,591.583 287.5,590.5C 282.136,585.135 276.469,580.135 270.5,575.5C 269.492,573.661 267.992,572.328 266,571.5C 265.333,569.833 265.333,568.167 266,566.5C 273.781,557.278 283.281,554.944 294.5,559.5 Z"/></g>
<g><path style="opacity:1" fill="#e4b47c" d="M 46.5,587.5 C 45.5269,585.052 45.1936,582.385 45.5,579.5C 47.1023,575.905 49.1023,572.571 51.5,569.5C 53.7488,568.92 55.4154,567.587 56.5,565.5C 60.1136,563.693 63.7802,561.86 67.5,560C 70.2567,559.416 72.9234,559.75 75.5,561C 79,563.833 82.5,566.667 86,569.5C 87.373,571.695 87.7063,574.029 87,576.5C 78.4149,581.875 69.9149,587.375 61.5,593C 60,593.167 58.5,593.333 57,593.5C 52.7374,594.138 50.2374,592.471 49.5,588.5C 50.4803,583.008 53.3136,578.675 58,575.5C 58.6877,574.668 58.521,574.002 57.5,573.5C 51.5896,576.41 47.923,581.076 46.5,587.5 Z"/></g>
<g><path style="opacity:1" fill="#715944" d="M 295.5,560.5 C 297.833,560.833 299.167,562.167 299.5,564.5C 299.167,562.167 297.833,560.833 295.5,560.5 Z"/></g>
<g><path style="opacity:1" fill="#4f3d2f" d="M 56.5,565.5 C 55.4154,567.587 53.7488,568.92 51.5,569.5C 52.5846,567.413 54.2512,566.08 56.5,565.5 Z"/></g>
<g><path style="opacity:1" fill="#36271c" d="M 301.5,566.5 C 302.906,566.973 303.573,567.973 303.5,569.5C 302.094,569.027 301.427,568.027 301.5,566.5 Z"/></g>
<g><path style="opacity:1" fill="#180d09" d="M 305.5,587.5 C 304.052,590.264 301.719,591.931 298.5,592.5C 299.473,590.932 299.64,589.265 299,587.5C 296.501,582.408 294.168,577.408 292,572.5C 296.574,576.64 299.907,581.64 302,587.5C 303.145,588.684 304.312,588.684 305.5,587.5 Z"/></g>
<g><path style="opacity:1" fill="#160c09" d="M 51.5,569.5 C 49.1023,572.571 47.1023,575.905 45.5,579.5C 44.5269,581.948 44.1936,584.615 44.5,587.5C 42.0488,584.432 41.8822,581.099 44,577.5C 46.0282,574.308 48.5282,571.641 51.5,569.5 Z"/></g>
<g><path style="opacity:1" fill="#3a3a35" d="M 193.5,573.5 C 194.833,573.5 196.167,573.5 197.5,573.5C 197.5,574.833 197.5,576.167 197.5,577.5C 196.167,577.5 194.833,577.5 193.5,577.5C 193.5,576.167 193.5,574.833 193.5,573.5 Z"/></g>
<g><path style="opacity:1" fill="#18150f" d="M 303.5,569.5 C 304.117,569.611 304.617,569.944 305,570.5C 305.956,574.981 306.789,579.481 307.5,584C 307.192,585.459 306.525,586.626 305.5,587.5C 305.823,581.365 305.156,575.365 303.5,569.5 Z"/></g>
<g><path style="opacity:1" fill="#211d17" d="M 270.5,575.5 C 276.469,580.135 282.136,585.135 287.5,590.5C 280.938,586.61 275.271,581.61 270.5,575.5 Z"/></g>
<g><path style="opacity:1" fill="#56554b" d="M 187.5,545.5 C 188.33,556.326 188.83,567.326 189,578.5C 188.97,581.361 189.803,583.695 191.5,585.5C 190.791,586.404 189.791,586.737 188.5,586.5C 188.663,584.143 188.497,581.81 188,579.5C 187.814,582.036 187.314,584.369 186.5,586.5C 185.674,575.187 185.34,563.854 185.5,552.5C 186.33,560.99 186.83,569.657 187,578.5C 187.5,567.505 187.667,556.505 187.5,545.5 Z"/></g>
<g><path style="opacity:1" fill="#79634d" d="M 45.5,579.5 C 45.1936,582.385 45.5269,585.052 46.5,587.5C 46.5,588.167 46.1667,588.5 45.5,588.5C 44.8333,588.5 44.5,588.167 44.5,587.5C 44.1936,584.615 44.5269,581.948 45.5,579.5 Z"/></g>
<g><path style="opacity:1" fill="#1c1a14" d="M 287.5,590.5 C 291.085,591.583 294.751,592.249 298.5,592.5C 294.545,593.895 290.878,593.229 287.5,590.5 Z"/></g>
</svg>
